<svg width="24" height="24" viewBox="0 0 24 24" xmlns="http://www.w3.org/2000/svg">
  <!-- 左上角大圆 -->
  <path d="M7.5 2.5C3.36 2.5 0 5.41 0 9C0 11.12 1.15 13.03 2.94 14.28C2.5 15.92 1.5 17.43 1.5 17.43C1.5 17.43 3.94 17.67 6.04 16.31C6.51 16.39 7 16.43 7.5 16.43C11.64 16.43 15 13.52 15 9.93C15 6.34 11.64 2.5 7.5 2.5Z" fill="#07C160"/>
  <!-- 左上角眼睛 -->
  <circle cx="5.5" cy="7.5" r="1" fill="white"/>
  <circle cx="9.5" cy="7.5" r="1" fill="white"/>
  <!-- 右下角小圆 (带白色描边用于切割视觉) -->
  <g>
    <path d="M16.5 11.5C13.19 11.5 10.5 13.74 10.5 16.5C10.5 18.14 11.55 19.6 13.17 20.52C12.78 21.85 12 23 12 23C12 23 13.95 23.19 15.65 22.08C16.08 22.16 16.52 22.2 16.96 22.2C20.28 22.2 23 19.96 23 17.2C23 14.44 20.28 11.5 16.5 11.5Z" fill="#07C160" stroke="white" stroke-width="1.2" paint-order="stroke"/>
    <!-- 右下角眼睛 -->
    <circle cx="14.5" cy="15.5" r="0.8" fill="white"/>
    <circle cx="18.5" cy="15.5" r="0.8" fill="white"/>
  </g>
</svg>